<mxfile host="65bd71144e" pages="3">
    <diagram id="DLv27NlTFujL9ScUyxy2" name="Entity">
        <mxGraphModel dx="4724" dy="8022" grid="0" gridSize="10" guides="1" tooltips="1" connect="1" arrows="1" fold="1" page="0" pageScale="1" pageWidth="827" pageHeight="1169" math="0" shadow="0">
            <root>
                <mxCell id="0"/>
                <mxCell id="1" parent="0"/>
                <mxCell id="qAQAKjogSzJJ_c347CmW-32" style="edgeStyle=orthogonalEdgeStyle;rounded=0;orthogonalLoop=1;jettySize=auto;html=1;entryX=0.5;entryY=0;entryDx=0;entryDy=0;" parent="1" source="qAQAKjogSzJJ_c347CmW-13" target="qAQAKjogSzJJ_c347CmW-17" edge="1">
                    <mxGeometry relative="1" as="geometry"/>
                </mxCell>
                <mxCell id="qAQAKjogSzJJ_c347CmW-33" style="edgeStyle=orthogonalEdgeStyle;rounded=0;orthogonalLoop=1;jettySize=auto;html=1;entryX=0.5;entryY=0;entryDx=0;entryDy=0;" parent="1" source="qAQAKjogSzJJ_c347CmW-13" target="qAQAKjogSzJJ_c347CmW-26" edge="1">
                    <mxGeometry relative="1" as="geometry"/>
                </mxCell>
                <mxCell id="qAQAKjogSzJJ_c347CmW-13" value="Entity" style="swimlane;fontStyle=1;align=center;verticalAlign=top;childLayout=stackLayout;horizontal=1;startSize=26;horizontalStack=0;resizeParent=1;resizeParentMax=0;resizeLast=0;collapsible=1;marginBottom=0;" parent="1" vertex="1">
                    <mxGeometry x="-3849" y="-7459" width="160" height="220" as="geometry"/>
                </mxCell>
                <mxCell id="qAQAKjogSzJJ_c347CmW-14" value="+ position : pair(x, y)" style="text;strokeColor=none;fillColor=none;align=left;verticalAlign=top;spacingLeft=4;spacingRight=4;overflow=hidden;rotatable=0;points=[[0,0.5],[1,0.5]];portConstraint=eastwest;" parent="qAQAKjogSzJJ_c347CmW-13" vertex="1">
                    <mxGeometry y="26" width="160" height="66" as="geometry"/>
                </mxCell>
                <mxCell id="qAQAKjogSzJJ_c347CmW-15" value="" style="line;strokeWidth=1;fillColor=none;align=left;verticalAlign=middle;spacingTop=-1;spacingLeft=3;spacingRight=3;rotatable=0;labelPosition=right;points=[];portConstraint=eastwest;strokeColor=inherit;" parent="qAQAKjogSzJJ_c347CmW-13" vertex="1">
                    <mxGeometry y="92" width="160" height="8" as="geometry"/>
                </mxCell>
                <mxCell id="qAQAKjogSzJJ_c347CmW-16" value="+ move() : pair(int, int)&#10;+ triggerScript() : void" style="text;strokeColor=none;fillColor=none;align=left;verticalAlign=top;spacingLeft=4;spacingRight=4;overflow=hidden;rotatable=0;points=[[0,0.5],[1,0.5]];portConstraint=eastwest;" parent="qAQAKjogSzJJ_c347CmW-13" vertex="1">
                    <mxGeometry y="100" width="160" height="120" as="geometry"/>
                </mxCell>
                <mxCell id="qAQAKjogSzJJ_c347CmW-17" value="Player" style="swimlane;fontStyle=1;align=center;verticalAlign=top;childLayout=stackLayout;horizontal=1;startSize=26;horizontalStack=0;resizeParent=1;resizeParentMax=0;resizeLast=0;collapsible=1;marginBottom=0;" parent="1" vertex="1">
                    <mxGeometry x="-3973" y="-7146" width="160" height="220" as="geometry"/>
                </mxCell>
                <mxCell id="qAQAKjogSzJJ_c347CmW-18" value="+ position : pair(x, y)&#10;+ inven : Inventory" style="text;strokeColor=none;fillColor=none;align=left;verticalAlign=top;spacingLeft=4;spacingRight=4;overflow=hidden;rotatable=0;points=[[0,0.5],[1,0.5]];portConstraint=eastwest;" parent="qAQAKjogSzJJ_c347CmW-17" vertex="1">
                    <mxGeometry y="26" width="160" height="66" as="geometry"/>
                </mxCell>
                <mxCell id="qAQAKjogSzJJ_c347CmW-19" value="" style="line;strokeWidth=1;fillColor=none;align=left;verticalAlign=middle;spacingTop=-1;spacingLeft=3;spacingRight=3;rotatable=0;labelPosition=right;points=[];portConstraint=eastwest;strokeColor=inherit;" parent="qAQAKjogSzJJ_c347CmW-17" vertex="1">
                    <mxGeometry y="92" width="160" height="8" as="geometry"/>
                </mxCell>
                <mxCell id="qAQAKjogSzJJ_c347CmW-20" value="+ move() : pair(int, int)&#10;    * prompt user input&#10;+ triggerScript() : void" style="text;strokeColor=none;fillColor=none;align=left;verticalAlign=top;spacingLeft=4;spacingRight=4;overflow=hidden;rotatable=0;points=[[0,0.5],[1,0.5]];portConstraint=eastwest;" parent="qAQAKjogSzJJ_c347CmW-17" vertex="1">
                    <mxGeometry y="100" width="160" height="120" as="geometry"/>
                </mxCell>
                <mxCell id="qAQAKjogSzJJ_c347CmW-42" style="edgeStyle=orthogonalEdgeStyle;rounded=0;orthogonalLoop=1;jettySize=auto;html=1;" parent="1" source="qAQAKjogSzJJ_c347CmW-26" target="qAQAKjogSzJJ_c347CmW-34" edge="1">
                    <mxGeometry relative="1" as="geometry"/>
                </mxCell>
                <mxCell id="qAQAKjogSzJJ_c347CmW-43" style="edgeStyle=orthogonalEdgeStyle;rounded=0;orthogonalLoop=1;jettySize=auto;html=1;entryX=0.5;entryY=0;entryDx=0;entryDy=0;" parent="1" source="qAQAKjogSzJJ_c347CmW-26" target="qAQAKjogSzJJ_c347CmW-38" edge="1">
                    <mxGeometry relative="1" as="geometry"/>
                </mxCell>
                <mxCell id="qAQAKjogSzJJ_c347CmW-26" value="NPC" style="swimlane;fontStyle=1;align=center;verticalAlign=top;childLayout=stackLayout;horizontal=1;startSize=26;horizontalStack=0;resizeParent=1;resizeParentMax=0;resizeLast=0;collapsible=1;marginBottom=0;" parent="1" vertex="1">
                    <mxGeometry x="-3727" y="-7146" width="160" height="220" as="geometry"/>
                </mxCell>
                <mxCell id="qAQAKjogSzJJ_c347CmW-27" value="+ position : pair(x, y)" style="text;strokeColor=none;fillColor=none;align=left;verticalAlign=top;spacingLeft=4;spacingRight=4;overflow=hidden;rotatable=0;points=[[0,0.5],[1,0.5]];portConstraint=eastwest;" parent="qAQAKjogSzJJ_c347CmW-26" vertex="1">
                    <mxGeometry y="26" width="160" height="66" as="geometry"/>
                </mxCell>
                <mxCell id="qAQAKjogSzJJ_c347CmW-28" value="" style="line;strokeWidth=1;fillColor=none;align=left;verticalAlign=middle;spacingTop=-1;spacingLeft=3;spacingRight=3;rotatable=0;labelPosition=right;points=[];portConstraint=eastwest;strokeColor=inherit;" parent="qAQAKjogSzJJ_c347CmW-26" vertex="1">
                    <mxGeometry y="92" width="160" height="8" as="geometry"/>
                </mxCell>
                <mxCell id="qAQAKjogSzJJ_c347CmW-29" value="+ move() : pair(int, int)&#10;+ triggerScript() : void" style="text;strokeColor=none;fillColor=none;align=left;verticalAlign=top;spacingLeft=4;spacingRight=4;overflow=hidden;rotatable=0;points=[[0,0.5],[1,0.5]];portConstraint=eastwest;" parent="qAQAKjogSzJJ_c347CmW-26" vertex="1">
                    <mxGeometry y="100" width="160" height="120" as="geometry"/>
                </mxCell>
                <mxCell id="qAQAKjogSzJJ_c347CmW-34" value="Ghost" style="swimlane;fontStyle=1;align=center;verticalAlign=top;childLayout=stackLayout;horizontal=1;startSize=26;horizontalStack=0;resizeParent=1;resizeParentMax=0;resizeLast=0;collapsible=1;marginBottom=0;" parent="1" vertex="1">
                    <mxGeometry x="-3837" y="-6852" width="160" height="220" as="geometry"/>
                </mxCell>
                <mxCell id="qAQAKjogSzJJ_c347CmW-35" value="+ position : pair(x, y)" style="text;strokeColor=none;fillColor=none;align=left;verticalAlign=top;spacingLeft=4;spacingRight=4;overflow=hidden;rotatable=0;points=[[0,0.5],[1,0.5]];portConstraint=eastwest;" parent="qAQAKjogSzJJ_c347CmW-34" vertex="1">
                    <mxGeometry y="26" width="160" height="66" as="geometry"/>
                </mxCell>
                <mxCell id="qAQAKjogSzJJ_c347CmW-36" value="" style="line;strokeWidth=1;fillColor=none;align=left;verticalAlign=middle;spacingTop=-1;spacingLeft=3;spacingRight=3;rotatable=0;labelPosition=right;points=[];portConstraint=eastwest;strokeColor=inherit;" parent="qAQAKjogSzJJ_c347CmW-34" vertex="1">
                    <mxGeometry y="92" width="160" height="8" as="geometry"/>
                </mxCell>
                <mxCell id="qAQAKjogSzJJ_c347CmW-37" value="+ move() : pair(int, int)&#10;    * move randomly or &#10;        toward soud&#10;+ triggerScript() : void" style="text;strokeColor=none;fillColor=none;align=left;verticalAlign=top;spacingLeft=4;spacingRight=4;overflow=hidden;rotatable=0;points=[[0,0.5],[1,0.5]];portConstraint=eastwest;" parent="qAQAKjogSzJJ_c347CmW-34" vertex="1">
                    <mxGeometry y="100" width="160" height="120" as="geometry"/>
                </mxCell>
                <mxCell id="qAQAKjogSzJJ_c347CmW-38" value="Secret NPC" style="swimlane;fontStyle=1;align=center;verticalAlign=top;childLayout=stackLayout;horizontal=1;startSize=26;horizontalStack=0;resizeParent=1;resizeParentMax=0;resizeLast=0;collapsible=1;marginBottom=0;" parent="1" vertex="1">
                    <mxGeometry x="-3588" y="-6852" width="160" height="220" as="geometry"/>
                </mxCell>
                <mxCell id="qAQAKjogSzJJ_c347CmW-39" value="+ position : pair(x, y)" style="text;strokeColor=none;fillColor=none;align=left;verticalAlign=top;spacingLeft=4;spacingRight=4;overflow=hidden;rotatable=0;points=[[0,0.5],[1,0.5]];portConstraint=eastwest;" parent="qAQAKjogSzJJ_c347CmW-38" vertex="1">
                    <mxGeometry y="26" width="160" height="66" as="geometry"/>
                </mxCell>
                <mxCell id="qAQAKjogSzJJ_c347CmW-40" value="" style="line;strokeWidth=1;fillColor=none;align=left;verticalAlign=middle;spacingTop=-1;spacingLeft=3;spacingRight=3;rotatable=0;labelPosition=right;points=[];portConstraint=eastwest;strokeColor=inherit;" parent="qAQAKjogSzJJ_c347CmW-38" vertex="1">
                    <mxGeometry y="92" width="160" height="8" as="geometry"/>
                </mxCell>
                <mxCell id="qAQAKjogSzJJ_c347CmW-41" value="+ move() : pair(int, int) : none&lt;br&gt;+ triggerScript() : void" style="text;strokeColor=none;fillColor=none;align=left;verticalAlign=top;spacingLeft=4;spacingRight=4;overflow=hidden;rotatable=0;points=[[0,0.5],[1,0.5]];portConstraint=eastwest;html=1;" parent="qAQAKjogSzJJ_c347CmW-38" vertex="1">
                    <mxGeometry y="100" width="160" height="120" as="geometry"/>
                </mxCell>
            </root>
        </mxGraphModel>
    </diagram>
    <diagram id="8EnMDPLEeq1D_IR8_W26" name="Tile">
        <mxGraphModel dx="1380" dy="950" grid="0" gridSize="10" guides="1" tooltips="1" connect="1" arrows="1" fold="1" page="0" pageScale="1" pageWidth="827" pageHeight="1169" math="0" shadow="0">
            <root>
                <mxCell id="0"/>
                <mxCell id="1" parent="0"/>
                <mxCell id="CgyEs3CRtBcVJwpH7cj_-29" style="edgeStyle=orthogonalEdgeStyle;rounded=0;orthogonalLoop=1;jettySize=auto;html=1;entryX=0.5;entryY=0;entryDx=0;entryDy=0;" parent="1" source="CgyEs3CRtBcVJwpH7cj_-5" target="CgyEs3CRtBcVJwpH7cj_-9" edge="1">
                    <mxGeometry relative="1" as="geometry"/>
                </mxCell>
                <mxCell id="CgyEs3CRtBcVJwpH7cj_-30" style="edgeStyle=orthogonalEdgeStyle;rounded=0;orthogonalLoop=1;jettySize=auto;html=1;entryX=0.5;entryY=0;entryDx=0;entryDy=0;" parent="1" source="CgyEs3CRtBcVJwpH7cj_-5" target="CgyEs3CRtBcVJwpH7cj_-13" edge="1">
                    <mxGeometry relative="1" as="geometry"/>
                </mxCell>
                <mxCell id="CgyEs3CRtBcVJwpH7cj_-38" style="edgeStyle=orthogonalEdgeStyle;rounded=0;orthogonalLoop=1;jettySize=auto;html=1;entryX=0.5;entryY=0;entryDx=0;entryDy=0;" parent="1" source="CgyEs3CRtBcVJwpH7cj_-5" target="CgyEs3CRtBcVJwpH7cj_-34" edge="1">
                    <mxGeometry relative="1" as="geometry">
                        <Array as="points">
                            <mxPoint x="174" y="166"/>
                            <mxPoint x="-231" y="166"/>
                        </Array>
                    </mxGeometry>
                </mxCell>
                <mxCell id="CgyEs3CRtBcVJwpH7cj_-5" value="Tile (not abstract)" style="swimlane;fontStyle=1;align=center;verticalAlign=top;childLayout=stackLayout;horizontal=1;startSize=26;horizontalStack=0;resizeParent=1;resizeParentMax=0;resizeLast=0;collapsible=1;marginBottom=0;html=1;" parent="1" vertex="1">
                    <mxGeometry x="94" y="-73" width="160" height="205" as="geometry"/>
                </mxCell>
                <mxCell id="CgyEs3CRtBcVJwpH7cj_-6" value="+ position: pair(int, int)&lt;br&gt;+ directions: int [4]" style="text;strokeColor=none;fillColor=none;align=left;verticalAlign=top;spacingLeft=4;spacingRight=4;overflow=hidden;rotatable=0;points=[[0,0.5],[1,0.5]];portConstraint=eastwest;html=1;" parent="CgyEs3CRtBcVJwpH7cj_-5" vertex="1">
                    <mxGeometry y="26" width="160" height="89" as="geometry"/>
                </mxCell>
                <mxCell id="CgyEs3CRtBcVJwpH7cj_-7" value="" style="line;strokeWidth=1;fillColor=none;align=left;verticalAlign=middle;spacingTop=-1;spacingLeft=3;spacingRight=3;rotatable=0;labelPosition=right;points=[];portConstraint=eastwest;strokeColor=inherit;html=1;" parent="CgyEs3CRtBcVJwpH7cj_-5" vertex="1">
                    <mxGeometry y="115" width="160" height="8" as="geometry"/>
                </mxCell>
                <mxCell id="CgyEs3CRtBcVJwpH7cj_-8" value="+ triggerScript() : void&lt;br&gt;+ getDirection() : int [4]&lt;br&gt;+ specialEvent()" style="text;strokeColor=none;fillColor=none;align=left;verticalAlign=top;spacingLeft=4;spacingRight=4;overflow=hidden;rotatable=0;points=[[0,0.5],[1,0.5]];portConstraint=eastwest;html=1;" parent="CgyEs3CRtBcVJwpH7cj_-5" vertex="1">
                    <mxGeometry y="123" width="160" height="82" as="geometry"/>
                </mxCell>
                <mxCell id="CgyEs3CRtBcVJwpH7cj_-9" value="Stair&amp;nbsp;" style="swimlane;fontStyle=1;align=center;verticalAlign=top;childLayout=stackLayout;horizontal=1;startSize=26;horizontalStack=0;resizeParent=1;resizeParentMax=0;resizeLast=0;collapsible=1;marginBottom=0;html=1;" parent="1" vertex="1">
                    <mxGeometry x="-38" y="200" width="160" height="205" as="geometry"/>
                </mxCell>
                <mxCell id="CgyEs3CRtBcVJwpH7cj_-10" value="+ position: pair(int, int)&lt;br&gt;+ directions: int [4]" style="text;strokeColor=none;fillColor=none;align=left;verticalAlign=top;spacingLeft=4;spacingRight=4;overflow=hidden;rotatable=0;points=[[0,0.5],[1,0.5]];portConstraint=eastwest;html=1;" parent="CgyEs3CRtBcVJwpH7cj_-9" vertex="1">
                    <mxGeometry y="26" width="160" height="89" as="geometry"/>
                </mxCell>
                <mxCell id="CgyEs3CRtBcVJwpH7cj_-11" value="" style="line;strokeWidth=1;fillColor=none;align=left;verticalAlign=middle;spacingTop=-1;spacingLeft=3;spacingRight=3;rotatable=0;labelPosition=right;points=[];portConstraint=eastwest;strokeColor=inherit;html=1;" parent="CgyEs3CRtBcVJwpH7cj_-9" vertex="1">
                    <mxGeometry y="115" width="160" height="8" as="geometry"/>
                </mxCell>
                <mxCell id="CgyEs3CRtBcVJwpH7cj_-12" value="+ triggerScript() : void&lt;br&gt;+ getDirection() : int [4]&lt;br&gt;+ SpecialEvent(): void" style="text;strokeColor=none;fillColor=none;align=left;verticalAlign=top;spacingLeft=4;spacingRight=4;overflow=hidden;rotatable=0;points=[[0,0.5],[1,0.5]];portConstraint=eastwest;html=1;" parent="CgyEs3CRtBcVJwpH7cj_-9" vertex="1">
                    <mxGeometry y="123" width="160" height="82" as="geometry"/>
                </mxCell>
                <mxCell id="CgyEs3CRtBcVJwpH7cj_-31" style="edgeStyle=orthogonalEdgeStyle;rounded=0;orthogonalLoop=1;jettySize=auto;html=1;entryX=0;entryY=0.5;entryDx=0;entryDy=0;" parent="1" source="CgyEs3CRtBcVJwpH7cj_-13" target="CgyEs3CRtBcVJwpH7cj_-18" edge="1">
                    <mxGeometry relative="1" as="geometry"/>
                </mxCell>
                <mxCell id="CgyEs3CRtBcVJwpH7cj_-32" style="edgeStyle=orthogonalEdgeStyle;rounded=0;orthogonalLoop=1;jettySize=auto;html=1;entryX=0;entryY=0.5;entryDx=0;entryDy=0;" parent="1" source="CgyEs3CRtBcVJwpH7cj_-13" target="CgyEs3CRtBcVJwpH7cj_-22" edge="1">
                    <mxGeometry relative="1" as="geometry"/>
                </mxCell>
                <mxCell id="CgyEs3CRtBcVJwpH7cj_-33" style="edgeStyle=orthogonalEdgeStyle;rounded=0;orthogonalLoop=1;jettySize=auto;html=1;entryX=0;entryY=0.5;entryDx=0;entryDy=0;" parent="1" source="CgyEs3CRtBcVJwpH7cj_-13" target="CgyEs3CRtBcVJwpH7cj_-26" edge="1">
                    <mxGeometry relative="1" as="geometry">
                        <Array as="points">
                            <mxPoint x="477" y="303"/>
                            <mxPoint x="477" y="653"/>
                        </Array>
                    </mxGeometry>
                </mxCell>
                <mxCell id="CgyEs3CRtBcVJwpH7cj_-13" value="Special room" style="swimlane;fontStyle=1;align=center;verticalAlign=top;childLayout=stackLayout;horizontal=1;startSize=26;horizontalStack=0;resizeParent=1;resizeParentMax=0;resizeLast=0;collapsible=1;marginBottom=0;html=1;" parent="1" vertex="1">
                    <mxGeometry x="241" y="200" width="160" height="205" as="geometry"/>
                </mxCell>
                <mxCell id="CgyEs3CRtBcVJwpH7cj_-14" value="+ position: pair(int, int)&lt;br&gt;+ directions: int [4]" style="text;strokeColor=none;fillColor=none;align=left;verticalAlign=top;spacingLeft=4;spacingRight=4;overflow=hidden;rotatable=0;points=[[0,0.5],[1,0.5]];portConstraint=eastwest;html=1;" parent="CgyEs3CRtBcVJwpH7cj_-13" vertex="1">
                    <mxGeometry y="26" width="160" height="89" as="geometry"/>
                </mxCell>
                <mxCell id="CgyEs3CRtBcVJwpH7cj_-15" value="" style="line;strokeWidth=1;fillColor=none;align=left;verticalAlign=middle;spacingTop=-1;spacingLeft=3;spacingRight=3;rotatable=0;labelPosition=right;points=[];portConstraint=eastwest;strokeColor=inherit;html=1;" parent="CgyEs3CRtBcVJwpH7cj_-13" vertex="1">
                    <mxGeometry y="115" width="160" height="8" as="geometry"/>
                </mxCell>
                <mxCell id="CgyEs3CRtBcVJwpH7cj_-16" value="+ triggerScript() : void&lt;br&gt;+ getDirection() : int [4]&lt;br&gt;+ getPostion() : pair(int, int)&lt;br&gt;&lt;span style=&quot;&quot;&gt;&#9;&lt;/span&gt;* random pos&lt;br&gt;+specialEvent()" style="text;strokeColor=none;fillColor=none;align=left;verticalAlign=top;spacingLeft=4;spacingRight=4;overflow=hidden;rotatable=0;points=[[0,0.5],[1,0.5]];portConstraint=eastwest;html=1;" parent="CgyEs3CRtBcVJwpH7cj_-13" vertex="1">
                    <mxGeometry y="123" width="160" height="82" as="geometry"/>
                </mxCell>
                <mxCell id="CgyEs3CRtBcVJwpH7cj_-17" value="Hint room" style="swimlane;fontStyle=1;align=center;verticalAlign=top;childLayout=stackLayout;horizontal=1;startSize=26;horizontalStack=0;resizeParent=1;resizeParentMax=0;resizeLast=0;collapsible=1;marginBottom=0;html=1;" parent="1" vertex="1">
                    <mxGeometry x="550" y="88" width="160" height="205" as="geometry"/>
                </mxCell>
                <mxCell id="CgyEs3CRtBcVJwpH7cj_-18" value="+ position: pair(int, int)&lt;br&gt;+ directions: int [4]" style="text;strokeColor=none;fillColor=none;align=left;verticalAlign=top;spacingLeft=4;spacingRight=4;overflow=hidden;rotatable=0;points=[[0,0.5],[1,0.5]];portConstraint=eastwest;html=1;" parent="CgyEs3CRtBcVJwpH7cj_-17" vertex="1">
                    <mxGeometry y="26" width="160" height="89" as="geometry"/>
                </mxCell>
                <mxCell id="CgyEs3CRtBcVJwpH7cj_-19" value="" style="line;strokeWidth=1;fillColor=none;align=left;verticalAlign=middle;spacingTop=-1;spacingLeft=3;spacingRight=3;rotatable=0;labelPosition=right;points=[];portConstraint=eastwest;strokeColor=inherit;html=1;" parent="CgyEs3CRtBcVJwpH7cj_-17" vertex="1">
                    <mxGeometry y="115" width="160" height="8" as="geometry"/>
                </mxCell>
                <mxCell id="CgyEs3CRtBcVJwpH7cj_-20" value="+ triggerScript() : void&lt;br&gt;+ getDirection() : int [4]&lt;br&gt;+ getPostion() : pair(int, int)&lt;br&gt;&lt;span style=&quot;&quot;&gt;&#9;&lt;/span&gt;* random pos&lt;br&gt;+ specialEvent()" style="text;strokeColor=none;fillColor=none;align=left;verticalAlign=top;spacingLeft=4;spacingRight=4;overflow=hidden;rotatable=0;points=[[0,0.5],[1,0.5]];portConstraint=eastwest;html=1;" parent="CgyEs3CRtBcVJwpH7cj_-17" vertex="1">
                    <mxGeometry y="123" width="160" height="82" as="geometry"/>
                </mxCell>
                <mxCell id="CgyEs3CRtBcVJwpH7cj_-21" value="Secret room" style="swimlane;fontStyle=1;align=center;verticalAlign=top;childLayout=stackLayout;horizontal=1;startSize=26;horizontalStack=0;resizeParent=1;resizeParentMax=0;resizeLast=0;collapsible=1;marginBottom=0;html=1;" parent="1" vertex="1">
                    <mxGeometry x="550" y="344" width="160" height="205" as="geometry"/>
                </mxCell>
                <mxCell id="CgyEs3CRtBcVJwpH7cj_-22" value="+ position: pair(int, int)&lt;br&gt;+ directions: int [4]" style="text;strokeColor=none;fillColor=none;align=left;verticalAlign=top;spacingLeft=4;spacingRight=4;overflow=hidden;rotatable=0;points=[[0,0.5],[1,0.5]];portConstraint=eastwest;html=1;" parent="CgyEs3CRtBcVJwpH7cj_-21" vertex="1">
                    <mxGeometry y="26" width="160" height="89" as="geometry"/>
                </mxCell>
                <mxCell id="CgyEs3CRtBcVJwpH7cj_-23" value="" style="line;strokeWidth=1;fillColor=none;align=left;verticalAlign=middle;spacingTop=-1;spacingLeft=3;spacingRight=3;rotatable=0;labelPosition=right;points=[];portConstraint=eastwest;strokeColor=inherit;html=1;" parent="CgyEs3CRtBcVJwpH7cj_-21" vertex="1">
                    <mxGeometry y="115" width="160" height="8" as="geometry"/>
                </mxCell>
                <mxCell id="CgyEs3CRtBcVJwpH7cj_-24" value="+ triggerScript() : void&lt;br&gt;+ getDirection() : int [4]&lt;br&gt;+ getPostion() : pair(int, int)&lt;br&gt;* random pos&lt;br&gt;+ specialEvent()" style="text;strokeColor=none;fillColor=none;align=left;verticalAlign=top;spacingLeft=4;spacingRight=4;overflow=hidden;rotatable=0;points=[[0,0.5],[1,0.5]];portConstraint=eastwest;html=1;" parent="CgyEs3CRtBcVJwpH7cj_-21" vertex="1">
                    <mxGeometry y="123" width="160" height="82" as="geometry"/>
                </mxCell>
                <mxCell id="CgyEs3CRtBcVJwpH7cj_-25" value="Key room&amp;nbsp;" style="swimlane;fontStyle=1;align=center;verticalAlign=top;childLayout=stackLayout;horizontal=1;startSize=26;horizontalStack=0;resizeParent=1;resizeParentMax=0;resizeLast=0;collapsible=1;marginBottom=0;html=1;" parent="1" vertex="1">
                    <mxGeometry x="550" y="582" width="160" height="205" as="geometry"/>
                </mxCell>
                <mxCell id="CgyEs3CRtBcVJwpH7cj_-26" value="+ position: pair(int, int)&lt;br&gt;+ directions: int [4]" style="text;strokeColor=none;fillColor=none;align=left;verticalAlign=top;spacingLeft=4;spacingRight=4;overflow=hidden;rotatable=0;points=[[0,0.5],[1,0.5]];portConstraint=eastwest;html=1;" parent="CgyEs3CRtBcVJwpH7cj_-25" vertex="1">
                    <mxGeometry y="26" width="160" height="89" as="geometry"/>
                </mxCell>
                <mxCell id="CgyEs3CRtBcVJwpH7cj_-27" value="" style="line;strokeWidth=1;fillColor=none;align=left;verticalAlign=middle;spacingTop=-1;spacingLeft=3;spacingRight=3;rotatable=0;labelPosition=right;points=[];portConstraint=eastwest;strokeColor=inherit;html=1;" parent="CgyEs3CRtBcVJwpH7cj_-25" vertex="1">
                    <mxGeometry y="115" width="160" height="8" as="geometry"/>
                </mxCell>
                <mxCell id="CgyEs3CRtBcVJwpH7cj_-28" value="+ triggerScript() : void&lt;br&gt;+ getDirection() : int [4]&lt;br&gt;+ getPostion() : pair(int, int)&lt;br&gt;* random pos&lt;br&gt;+ specialEvent()" style="text;strokeColor=none;fillColor=none;align=left;verticalAlign=top;spacingLeft=4;spacingRight=4;overflow=hidden;rotatable=0;points=[[0,0.5],[1,0.5]];portConstraint=eastwest;html=1;" parent="CgyEs3CRtBcVJwpH7cj_-25" vertex="1">
                    <mxGeometry y="123" width="160" height="82" as="geometry"/>
                </mxCell>
                <mxCell id="CgyEs3CRtBcVJwpH7cj_-34" value="HidingPlace" style="swimlane;fontStyle=1;align=center;verticalAlign=top;childLayout=stackLayout;horizontal=1;startSize=26;horizontalStack=0;resizeParent=1;resizeParentMax=0;resizeLast=0;collapsible=1;marginBottom=0;html=1;" parent="1" vertex="1">
                    <mxGeometry x="-311" y="200" width="160" height="205" as="geometry"/>
                </mxCell>
                <mxCell id="CgyEs3CRtBcVJwpH7cj_-35" value="+ position: pair(int, int)&lt;br&gt;+ directions: int [4]" style="text;strokeColor=none;fillColor=none;align=left;verticalAlign=top;spacingLeft=4;spacingRight=4;overflow=hidden;rotatable=0;points=[[0,0.5],[1,0.5]];portConstraint=eastwest;html=1;" parent="CgyEs3CRtBcVJwpH7cj_-34" vertex="1">
                    <mxGeometry y="26" width="160" height="89" as="geometry"/>
                </mxCell>
                <mxCell id="CgyEs3CRtBcVJwpH7cj_-36" value="" style="line;strokeWidth=1;fillColor=none;align=left;verticalAlign=middle;spacingTop=-1;spacingLeft=3;spacingRight=3;rotatable=0;labelPosition=right;points=[];portConstraint=eastwest;strokeColor=inherit;html=1;" parent="CgyEs3CRtBcVJwpH7cj_-34" vertex="1">
                    <mxGeometry y="115" width="160" height="8" as="geometry"/>
                </mxCell>
                <mxCell id="CgyEs3CRtBcVJwpH7cj_-37" value="+ triggerScript() : void&lt;br&gt;+ getDirection() : int [4]&lt;br&gt;+ SpecialEvent()" style="text;strokeColor=none;fillColor=none;align=left;verticalAlign=top;spacingLeft=4;spacingRight=4;overflow=hidden;rotatable=0;points=[[0,0.5],[1,0.5]];portConstraint=eastwest;html=1;" parent="CgyEs3CRtBcVJwpH7cj_-34" vertex="1">
                    <mxGeometry y="123" width="160" height="82" as="geometry"/>
                </mxCell>
            </root>
        </mxGraphModel>
    </diagram>
    <diagram id="eMbqBJ9ZIhTtn_EWFE5R" name="Inventory">
        <mxGraphModel dx="2433" dy="917" grid="0" gridSize="10" guides="1" tooltips="1" connect="1" arrows="1" fold="1" page="0" pageScale="1" pageWidth="827" pageHeight="1169" math="0" shadow="0">
            <root>
                <mxCell id="0"/>
                <mxCell id="1" parent="0"/>
                <mxCell id="oN29SRuUaX90GdpWK1sl-1" value="Item" style="swimlane;fontStyle=1;align=center;verticalAlign=top;childLayout=stackLayout;horizontal=1;startSize=26;horizontalStack=0;resizeParent=1;resizeParentMax=0;resizeLast=0;collapsible=1;marginBottom=0;html=1;" parent="1" vertex="1">
                    <mxGeometry x="-98" y="152" width="160" height="164" as="geometry"/>
                </mxCell>
                <mxCell id="oN29SRuUaX90GdpWK1sl-2" value="+ name : string" style="text;strokeColor=none;fillColor=none;align=left;verticalAlign=top;spacingLeft=4;spacingRight=4;overflow=hidden;rotatable=0;points=[[0,0.5],[1,0.5]];portConstraint=eastwest;html=1;" parent="oN29SRuUaX90GdpWK1sl-1" vertex="1">
                    <mxGeometry y="26" width="160" height="26" as="geometry"/>
                </mxCell>
                <mxCell id="oN29SRuUaX90GdpWK1sl-3" value="" style="line;strokeWidth=1;fillColor=none;align=left;verticalAlign=middle;spacingTop=-1;spacingLeft=3;spacingRight=3;rotatable=0;labelPosition=right;points=[];portConstraint=eastwest;strokeColor=inherit;html=1;" parent="oN29SRuUaX90GdpWK1sl-1" vertex="1">
                    <mxGeometry y="52" width="160" height="8" as="geometry"/>
                </mxCell>
                <mxCell id="oN29SRuUaX90GdpWK1sl-4" value="+ triggerScript()&lt;br&gt;+ triggerEvent()&lt;br&gt;" style="text;strokeColor=none;fillColor=none;align=left;verticalAlign=top;spacingLeft=4;spacingRight=4;overflow=hidden;rotatable=0;points=[[0,0.5],[1,0.5]];portConstraint=eastwest;html=1;" parent="oN29SRuUaX90GdpWK1sl-1" vertex="1">
                    <mxGeometry y="60" width="160" height="104" as="geometry"/>
                </mxCell>
                <mxCell id="oN29SRuUaX90GdpWK1sl-6" value="Camera" style="swimlane;fontStyle=1;align=center;verticalAlign=top;childLayout=stackLayout;horizontal=1;startSize=26;horizontalStack=0;resizeParent=1;resizeParentMax=0;resizeLast=0;collapsible=1;marginBottom=0;html=1;" parent="1" vertex="1">
                    <mxGeometry x="155" width="160" height="164" as="geometry"/>
                </mxCell>
                <mxCell id="oN29SRuUaX90GdpWK1sl-7" value="+ name : string" style="text;strokeColor=none;fillColor=none;align=left;verticalAlign=top;spacingLeft=4;spacingRight=4;overflow=hidden;rotatable=0;points=[[0,0.5],[1,0.5]];portConstraint=eastwest;html=1;" parent="oN29SRuUaX90GdpWK1sl-6" vertex="1">
                    <mxGeometry y="26" width="160" height="26" as="geometry"/>
                </mxCell>
                <mxCell id="oN29SRuUaX90GdpWK1sl-8" value="" style="line;strokeWidth=1;fillColor=none;align=left;verticalAlign=middle;spacingTop=-1;spacingLeft=3;spacingRight=3;rotatable=0;labelPosition=right;points=[];portConstraint=eastwest;strokeColor=inherit;html=1;" parent="oN29SRuUaX90GdpWK1sl-6" vertex="1">
                    <mxGeometry y="52" width="160" height="8" as="geometry"/>
                </mxCell>
                <mxCell id="oN29SRuUaX90GdpWK1sl-9" value="+ triggerScript()&lt;br&gt;+ triggerEvent()&lt;br&gt;" style="text;strokeColor=none;fillColor=none;align=left;verticalAlign=top;spacingLeft=4;spacingRight=4;overflow=hidden;rotatable=0;points=[[0,0.5],[1,0.5]];portConstraint=eastwest;html=1;" parent="oN29SRuUaX90GdpWK1sl-6" vertex="1">
                    <mxGeometry y="60" width="160" height="104" as="geometry"/>
                </mxCell>
                <mxCell id="oN29SRuUaX90GdpWK1sl-14" value="Key" style="swimlane;fontStyle=1;align=center;verticalAlign=top;childLayout=stackLayout;horizontal=1;startSize=26;horizontalStack=0;resizeParent=1;resizeParentMax=0;resizeLast=0;collapsible=1;marginBottom=0;html=1;" parent="1" vertex="1">
                    <mxGeometry x="157" y="182" width="160" height="164" as="geometry"/>
                </mxCell>
                <mxCell id="oN29SRuUaX90GdpWK1sl-15" value="+ name : string" style="text;strokeColor=none;fillColor=none;align=left;verticalAlign=top;spacingLeft=4;spacingRight=4;overflow=hidden;rotatable=0;points=[[0,0.5],[1,0.5]];portConstraint=eastwest;html=1;" parent="oN29SRuUaX90GdpWK1sl-14" vertex="1">
                    <mxGeometry y="26" width="160" height="26" as="geometry"/>
                </mxCell>
                <mxCell id="oN29SRuUaX90GdpWK1sl-16" value="" style="line;strokeWidth=1;fillColor=none;align=left;verticalAlign=middle;spacingTop=-1;spacingLeft=3;spacingRight=3;rotatable=0;labelPosition=right;points=[];portConstraint=eastwest;strokeColor=inherit;html=1;" parent="oN29SRuUaX90GdpWK1sl-14" vertex="1">
                    <mxGeometry y="52" width="160" height="8" as="geometry"/>
                </mxCell>
                <mxCell id="oN29SRuUaX90GdpWK1sl-17" value="+ triggerScript()&lt;br&gt;+ triggerEvent()&lt;br&gt;" style="text;strokeColor=none;fillColor=none;align=left;verticalAlign=top;spacingLeft=4;spacingRight=4;overflow=hidden;rotatable=0;points=[[0,0.5],[1,0.5]];portConstraint=eastwest;html=1;" parent="oN29SRuUaX90GdpWK1sl-14" vertex="1">
                    <mxGeometry y="60" width="160" height="104" as="geometry"/>
                </mxCell>
                <mxCell id="oN29SRuUaX90GdpWK1sl-18" value="Hammer" style="swimlane;fontStyle=1;align=center;verticalAlign=top;childLayout=stackLayout;horizontal=1;startSize=26;horizontalStack=0;resizeParent=1;resizeParentMax=0;resizeLast=0;collapsible=1;marginBottom=0;html=1;" parent="1" vertex="1">
                    <mxGeometry x="159" y="361" width="160" height="164" as="geometry"/>
                </mxCell>
                <mxCell id="oN29SRuUaX90GdpWK1sl-19" value="+ name : string" style="text;strokeColor=none;fillColor=none;align=left;verticalAlign=top;spacingLeft=4;spacingRight=4;overflow=hidden;rotatable=0;points=[[0,0.5],[1,0.5]];portConstraint=eastwest;html=1;" parent="oN29SRuUaX90GdpWK1sl-18" vertex="1">
                    <mxGeometry y="26" width="160" height="26" as="geometry"/>
                </mxCell>
                <mxCell id="oN29SRuUaX90GdpWK1sl-20" value="" style="line;strokeWidth=1;fillColor=none;align=left;verticalAlign=middle;spacingTop=-1;spacingLeft=3;spacingRight=3;rotatable=0;labelPosition=right;points=[];portConstraint=eastwest;strokeColor=inherit;html=1;" parent="oN29SRuUaX90GdpWK1sl-18" vertex="1">
                    <mxGeometry y="52" width="160" height="8" as="geometry"/>
                </mxCell>
                <mxCell id="oN29SRuUaX90GdpWK1sl-21" value="+ triggerScript()&lt;br&gt;+ triggerEvent()&lt;br&gt;" style="text;strokeColor=none;fillColor=none;align=left;verticalAlign=top;spacingLeft=4;spacingRight=4;overflow=hidden;rotatable=0;points=[[0,0.5],[1,0.5]];portConstraint=eastwest;html=1;" parent="oN29SRuUaX90GdpWK1sl-18" vertex="1">
                    <mxGeometry y="60" width="160" height="104" as="geometry"/>
                </mxCell>
                <mxCell id="2UtiCyi6SnIc3qRm90yU-1" value="Inventory" style="swimlane;fontStyle=1;align=center;verticalAlign=top;childLayout=stackLayout;horizontal=1;startSize=26;horizontalStack=0;resizeParent=1;resizeParentMax=0;resizeLast=0;collapsible=1;marginBottom=0;html=1;" parent="1" vertex="1">
                    <mxGeometry x="-527" y="152" width="160" height="186" as="geometry"/>
                </mxCell>
                <mxCell id="2UtiCyi6SnIc3qRm90yU-2" value="+ Items : item[]" style="text;strokeColor=none;fillColor=none;align=left;verticalAlign=top;spacingLeft=4;spacingRight=4;overflow=hidden;rotatable=0;points=[[0,0.5],[1,0.5]];portConstraint=eastwest;html=1;" parent="2UtiCyi6SnIc3qRm90yU-1" vertex="1">
                    <mxGeometry y="26" width="160" height="26" as="geometry"/>
                </mxCell>
                <mxCell id="2UtiCyi6SnIc3qRm90yU-3" value="" style="line;strokeWidth=1;fillColor=none;align=left;verticalAlign=middle;spacingTop=-1;spacingLeft=3;spacingRight=3;rotatable=0;labelPosition=right;points=[];portConstraint=eastwest;strokeColor=inherit;html=1;" parent="2UtiCyi6SnIc3qRm90yU-1" vertex="1">
                    <mxGeometry y="52" width="160" height="8" as="geometry"/>
                </mxCell>
                <mxCell id="2UtiCyi6SnIc3qRm90yU-4" value="+ showItems()&lt;br&gt;+ triggerItem(int index)" style="text;strokeColor=none;fillColor=none;align=left;verticalAlign=top;spacingLeft=4;spacingRight=4;overflow=hidden;rotatable=0;points=[[0,0.5],[1,0.5]];portConstraint=eastwest;html=1;" parent="2UtiCyi6SnIc3qRm90yU-1" vertex="1">
                    <mxGeometry y="60" width="160" height="126" as="geometry"/>
                </mxCell>
                <mxCell id="2UtiCyi6SnIc3qRm90yU-5" style="edgeStyle=orthogonalEdgeStyle;rounded=0;orthogonalLoop=1;jettySize=auto;html=1;entryX=1;entryY=0.5;entryDx=0;entryDy=0;" parent="1" source="oN29SRuUaX90GdpWK1sl-2" target="2UtiCyi6SnIc3qRm90yU-2" edge="1">
                    <mxGeometry relative="1" as="geometry"/>
                </mxCell>
                <mxCell id="2UtiCyi6SnIc3qRm90yU-6" value="1" style="text;html=1;strokeColor=none;fillColor=none;align=center;verticalAlign=middle;whiteSpace=wrap;rounded=0;" parent="1" vertex="1">
                    <mxGeometry x="-158" y="164" width="60" height="30" as="geometry"/>
                </mxCell>
                <mxCell id="2UtiCyi6SnIc3qRm90yU-7" value="n" style="text;html=1;strokeColor=none;fillColor=none;align=center;verticalAlign=middle;whiteSpace=wrap;rounded=0;" parent="1" vertex="1">
                    <mxGeometry x="-385" y="167" width="60" height="30" as="geometry"/>
                </mxCell>
                <mxCell id="2UtiCyi6SnIc3qRm90yU-8" style="edgeStyle=orthogonalEdgeStyle;rounded=0;orthogonalLoop=1;jettySize=auto;html=1;entryX=0;entryY=0.5;entryDx=0;entryDy=0;" parent="1" source="oN29SRuUaX90GdpWK1sl-4" target="oN29SRuUaX90GdpWK1sl-9" edge="1">
                    <mxGeometry relative="1" as="geometry"/>
                </mxCell>
                <mxCell id="2UtiCyi6SnIc3qRm90yU-9" style="edgeStyle=orthogonalEdgeStyle;rounded=0;orthogonalLoop=1;jettySize=auto;html=1;entryX=0;entryY=0.5;entryDx=0;entryDy=0;" parent="1" source="oN29SRuUaX90GdpWK1sl-4" target="oN29SRuUaX90GdpWK1sl-17" edge="1">
                    <mxGeometry relative="1" as="geometry"/>
                </mxCell>
                <mxCell id="2UtiCyi6SnIc3qRm90yU-10" style="edgeStyle=orthogonalEdgeStyle;rounded=0;orthogonalLoop=1;jettySize=auto;html=1;entryX=0;entryY=0.5;entryDx=0;entryDy=0;" parent="1" source="oN29SRuUaX90GdpWK1sl-4" target="oN29SRuUaX90GdpWK1sl-21" edge="1">
                    <mxGeometry relative="1" as="geometry"/>
                </mxCell>
            </root>
        </mxGraphModel>
    </diagram>
</mxfile>